<?xml version="1.0" encoding="utf-8"?>
<!-- Generator: Adobe Illustrator 21.1.0, SVG Export Plug-In . SVG Version: 6.00 Build 0)  -->
<svg version="1.1" id="Capa_1" xmlns="http://www.w3.org/2000/svg" xmlns:xlink="http://www.w3.org/1999/xlink" x="0px" y="0px"
	 viewBox="0 0 232.9 150" style="enable-background:new 0 0 232.9 150;" xml:space="preserve">
<style type="text/css">
	.st0{fill-rule:evenodd;clip-rule:evenodd;}
	.st1{fill:#FFFFFF;stroke:#FFFFFF;stroke-width:2;stroke-miterlimit:10;}
	.st2{fill:#FFFFFF;stroke:#FFFFFF;stroke-miterlimit:10;}
</style>
<rect class="st0" width="232.9" height="150"/>
<g>
	<g>
		<path class="st1" d="M191.9,73.7h8.5c-1.8,6.3-5.6,11.4-11.4,15.5c-5.7,4.1-12.2,6.2-19.4,6.2c-8.9,0-16.4-2.8-22.6-8.5
			c-6.2-5.6-9.3-12.5-9.3-20.6V55.7c0-8.1,3.1-14.9,9.3-20.6c6.2-5.6,13.7-8.5,22.6-8.5c7.2,0,13.7,2.1,19.4,6.2
			c5.7,4.1,9.5,9.3,11.4,15.5h-8.5c-0.5-1.5-1.1-2.9-2.1-4.2c-2.1-3.2-5-5.7-8.6-7.5c-3.6-1.8-7.5-2.7-11.7-2.7
			c-4.2,0-8.1,0.9-11.7,2.7c-3.6,1.8-6.5,4.3-8.6,7.5c-2.3,3.5-3.4,7.3-3.4,11.5v10.6c0,4.2,1.1,8,3.4,11.5c2.1,3.2,5,5.7,8.6,7.5
			c3.6,1.8,7.5,2.7,11.7,2.7c4.2,0,8.1-0.9,11.7-2.7c3.6-1.8,6.5-4.3,8.6-7.5C190.8,76.6,191.5,75.2,191.9,73.7z"/>
		<path class="st1" d="M65,27.2c4.3,0,8.7,0.9,12.4,2.7c3.7,1.9,6.6,4.4,8.7,7.6c2.3-3.2,5.3-5.7,9-7.6c3.7-1.9,7.7-2.8,11.9-2.8
			c6.7,0,12.5,2.2,17.3,6.6c4.8,4.4,7.2,9.6,7.2,15.8v46.3h-7.8c0.2-30.5,0.2-45.9,0.2-46.3c0-4.3-1.7-8-5.1-11
			c-3.4-3-7.4-4.5-12.1-4.5c-4.7,0-8.7,1.5-11.9,4.5c-3.3,3-4.9,6.6-4.9,11v46.3h-7.6V49.4c0-4.3-1.7-8-5.1-11
			C74,35.5,69.7,34,65,34"/>
		<path class="st1" d="M61.6,34c-5.5,0.5-7,1.9-9.1,3.8c-3.3,3-4.9,6.6-4.9,11v46.3H40V40.2c0-1.9-0.7-3.6-2.2-4.9
			c-1.5-1.3-3.3-2-5.4-2v-6.9c2.9,0,5.6,0.7,8,2.1c2.4,1.4,4.3,3.3,5.5,5.6c3.7-3.8,10.1-6.5,15.6-7"/>
	</g>
	<g>
		<path class="st2" d="M43.2,111.8l-1.6,7.5h3.8h0.1v0.2h-0.1h-3.9l-0.8,3.8l0,0.1h-0.2l0-0.1l0.8-3.8h-6.1l-0.8,3.8l0,0.1h-0.2
			l0-0.1l0.8-3.8h-2.3h-0.1v-0.2h0.1H35l1.6-7.5h-3.9h-0.1v-0.2h0.1h3.9l0.8-3.8l0-0.1h0.2l0,0.1l-0.8,3.7H43l0.8-3.8l0-0.1h0.2
			l0,0.1l-0.8,3.7h2.2h0.1v0.2h-0.1H43.2z M43,111.8h-6.1l-1.6,7.5h6.1L43,111.8z"/>
		<path class="st2" d="M48.6,115.4c0.8-2,2.7-3,5.1-3h0.2v0.5h-0.2c-2.9,0-5,1.8-5.1,5v0.1v0.2v5.1v0.2h-0.5v-0.2v-5.1V118
			c0,0,0-0.1,0-0.1v-5.2v-0.2h0.5v0.2V115.4z"/>
		<path class="st2" d="M55.3,118c0-3.1,2.2-5.6,4.8-5.6c1.8,0,3.4,1.3,4.2,3.1v-2.9v-0.2h0.5v0.2v5.3v5.3v0.2h-0.5v-0.2v-2.9
			c-0.8,1.9-2.4,3.1-4.2,3.1C57.5,123.5,55.3,121.1,55.3,118z M55.8,118c0,2.8,2,5.1,4.4,5.1c2.3,0,4.2-2.3,4.2-5.1
			c0-2.8-1.9-5.1-4.2-5.1C57.7,112.9,55.8,115.1,55.8,118z"/>
		<path class="st2" d="M69.8,112.4h3.3h0.2v0.5h-0.2h-3.3v10.4v0.2h-0.5v-0.2v-10.4h-1.8h-0.2v-0.5h0.2h1.8c0.1-3,1.7-4.4,3.8-4.4
			h0.2v0.5h-0.2C71.3,108.4,69.9,109.8,69.8,112.4z"/>
		<path class="st2" d="M75,118c0-3.1,2.2-5.6,4.8-5.6c1.8,0,3.4,1.3,4.2,3.1v-2.9v-0.2h0.5v0.2v5.3v5.3v0.2H84v-0.2v-2.9
			c-0.8,1.9-2.4,3.1-4.2,3.1C77.2,123.5,75,121.1,75,118z M75.5,118c0,2.8,2,5.1,4.4,5.1c2.3,0,4.2-2.3,4.2-5.1
			c0-2.8-1.9-5.1-4.2-5.1C77.4,112.9,75.5,115.1,75.5,118z"/>
		<path class="st2" d="M96.7,121l0.4,0.3c-0.7,1-2,2.3-4.5,2.3c-2.8,0-5.1-2.5-5.1-5.6c0-3.1,2.3-5.6,5.1-5.6c2.8,0,5.1,2.5,5.1,5.6
			v0.2h-0.2H88c0.1,2.7,2.1,4.9,4.6,4.9C94.8,123.1,96,121.9,96.7,121z M88,117.7h9.3c0-2.6-2.1-4.9-4.6-4.9
			C90.1,112.9,88.1,115,88,117.7z"/>
		<path class="st2" d="M100.7,107.8v-0.2h0.5v0.2v15.6v0.2h-0.5v-0.2V107.8z"/>
		<path class="st2" d="M112.8,115.2c0.5-1.6,1.9-2.8,3.6-2.8c2.1,0,3.8,1.9,3.8,4.3v6.6l0,0.3h-0.4l0-0.2l0-6.6
			c0-2.1-1.5-3.8-3.3-3.8s-3.3,1.7-3.3,3.8v0.2v6.4l0,0.3h-0.4l0-0.2l0-6.4h0v-0.2c0-2.1-1.5-3.8-3.3-3.8c-1.9,0-3.3,1.7-3.3,3.8
			v0.2v6.4v0.2h-0.5v-0.2v-6.4v-0.2v-4.1v-0.2h0.5v0.2v2c0.6-1.3,1.9-2.2,3.3-2.2C110.8,112.4,112.2,113.5,112.8,115.2z"/>
		<path class="st2" d="M123.1,118c0-3.1,2.2-5.6,4.8-5.6c1.8,0,3.4,1.3,4.2,3.1v-2.9v-0.2h0.5v0.2v5.3v5.3v0.2h-0.5v-0.2v-2.9
			c-0.8,1.9-2.4,3.1-4.2,3.1C125.3,123.5,123.1,121.1,123.1,118z M123.6,118c0,2.8,1.9,5.1,4.4,5.1c2.3,0,4.2-2.3,4.2-5.1
			c0-2.8-1.9-5.1-4.2-5.1C125.5,112.9,123.6,115.1,123.6,118z"/>
		<path class="st2" d="M137,115.4c0.8-2,2.7-3,5.1-3h0.2v0.5h-0.2c-2.9,0-5,1.8-5.1,5v0.1v0.2v5.1v0.2h-0.5v-0.2v-5.1V118
			c0,0,0-0.1,0-0.1v-5.2v-0.2h0.5v0.2V115.4z"/>
		<path class="st2" d="M145.7,112.9v7.8c0,1.6,1.2,2.5,3.3,2.5h0.2v0.5H149c-2.4,0-3.7-1.1-3.8-2.9v-7.8h-1.8h-0.2v-0.5h0.2h1.8V110
			v-0.2h0.5v0.2v2.4h3.3h0.2v0.5H149H145.7z"/>
		<path class="st2" d="M152.3,110.3H152v-0.5h0.2h0h0.2v0.5H152.3L152.3,110.3z M152,112.6v-0.2h0.5v0.2v10.7v0.2H152v-0.2V112.6z"
			/>
		<path class="st2" d="M165.5,123.3l0,0.3h-0.4l0-0.2l0-6.3c0-2.3-1.7-4.2-3.9-4.2c-2.2,0-3.9,1.9-3.9,4.2v0.2v6v0.2h-0.5v-0.2v-6
			v-0.2v-4.4v-0.2h0.5v0.2v2.3c0.7-1.5,2.2-2.6,3.9-2.6c2.4,0,4.4,2.1,4.4,4.7V123.3z"/>
		<path class="st2" d="M177.7,121l0.4,0.3c-0.7,1-2,2.3-4.5,2.3c-2.8,0-5.1-2.5-5.1-5.6c0-3.1,2.3-5.6,5.1-5.6
			c2.8,0,5.1,2.5,5.1,5.6v0.2h-0.2H169c0.1,2.7,2.1,4.9,4.6,4.9C175.9,123.1,177.1,121.9,177.7,121z M169,117.7h9.3
			c0-2.6-2.1-4.9-4.6-4.9C171.1,112.9,169.1,115,169,117.7z"/>
		<path class="st2" d="M181.6,112.9h-0.2v-0.5h0.2h6.9h0.2h0.2l-0.3,0.4l-7.2,10.3h7.5h0.2v0.5H189h-7.9h-0.2h-0.2l0.3-0.4l7.2-10.3
			H181.6z"/>
		<path class="st2" d="M200.2,121.1l0.4,0.3c-0.6,1-1.9,2.2-4.2,2.2c-2.8,0-5.1-2.5-5.1-5.6c0-3.1,2.3-5.6,5.1-5.6
			c2.3,0,3.6,1.1,4.2,2l-0.4,0.3c-0.6-0.9-1.7-1.9-3.8-1.9c-2.6,0-4.6,2.3-4.6,5.1c0,2.8,2,5.1,4.6,5.1
			C198.4,123.1,199.5,121.9,200.2,121.1z"/>
	</g>
</g>
</svg>
